<mxfile host="app.diagrams.net" agent="Mozilla/5.0 (Macintosh; Intel Mac OS X 10_15_7) AppleWebKit/537.36 (KHTML, like Gecko) Chrome/141.0.0.0 Safari/537.36" version="28.2.5">
  <diagram name="Page-1" id="_0lmAKhA2dvFfGMrQuqE">
    <mxGraphModel dx="1296" dy="786" grid="1" gridSize="10" guides="1" tooltips="1" connect="1" arrows="1" fold="1" page="1" pageScale="1" pageWidth="827" pageHeight="1169" math="0" shadow="0">
      <root>
        <mxCell id="0" />
        <mxCell id="1" parent="0" />
        <mxCell id="BdtXIAtwK2uknq8cvWd8-1" value="" style="rounded=0;whiteSpace=wrap;html=1;fillColor=none;strokeColor=default;dashed=1;" parent="1" vertex="1">
          <mxGeometry x="120" y="130" width="120" height="250" as="geometry" />
        </mxCell>
        <mxCell id="BdtXIAtwK2uknq8cvWd8-2" value="Sources" style="rounded=0;whiteSpace=wrap;html=1;strokeColor=none;" parent="1" vertex="1">
          <mxGeometry x="135" y="110" width="90" height="40" as="geometry" />
        </mxCell>
        <mxCell id="BdtXIAtwK2uknq8cvWd8-16" style="edgeStyle=orthogonalEdgeStyle;rounded=0;orthogonalLoop=1;jettySize=auto;html=1;entryX=0;entryY=0.5;entryDx=0;entryDy=0;" parent="1" source="BdtXIAtwK2uknq8cvWd8-3" target="BdtXIAtwK2uknq8cvWd8-12" edge="1">
          <mxGeometry relative="1" as="geometry" />
        </mxCell>
        <mxCell id="BdtXIAtwK2uknq8cvWd8-17" style="edgeStyle=orthogonalEdgeStyle;rounded=0;orthogonalLoop=1;jettySize=auto;html=1;entryX=0;entryY=0.5;entryDx=0;entryDy=0;" parent="1" source="BdtXIAtwK2uknq8cvWd8-3" target="BdtXIAtwK2uknq8cvWd8-9" edge="1">
          <mxGeometry relative="1" as="geometry" />
        </mxCell>
        <mxCell id="BdtXIAtwK2uknq8cvWd8-19" style="edgeStyle=orthogonalEdgeStyle;rounded=0;orthogonalLoop=1;jettySize=auto;html=1;entryX=0;entryY=0.5;entryDx=0;entryDy=0;" parent="1" source="BdtXIAtwK2uknq8cvWd8-3" target="BdtXIAtwK2uknq8cvWd8-11" edge="1">
          <mxGeometry relative="1" as="geometry" />
        </mxCell>
        <mxCell id="BdtXIAtwK2uknq8cvWd8-3" value="CRM" style="image;aspect=fixed;html=1;points=[];align=center;fontSize=12;image=img/lib/azure2/general/Folder_Blank.svg;" parent="1" vertex="1">
          <mxGeometry x="155.35" y="180" width="49.3" height="40" as="geometry" />
        </mxCell>
        <mxCell id="BdtXIAtwK2uknq8cvWd8-20" style="edgeStyle=orthogonalEdgeStyle;rounded=0;orthogonalLoop=1;jettySize=auto;html=1;entryX=0;entryY=0.5;entryDx=0;entryDy=0;" parent="1" source="BdtXIAtwK2uknq8cvWd8-4" target="BdtXIAtwK2uknq8cvWd8-14" edge="1">
          <mxGeometry relative="1" as="geometry" />
        </mxCell>
        <mxCell id="BdtXIAtwK2uknq8cvWd8-21" style="edgeStyle=orthogonalEdgeStyle;rounded=0;orthogonalLoop=1;jettySize=auto;html=1;entryX=0;entryY=0.5;entryDx=0;entryDy=0;" parent="1" source="BdtXIAtwK2uknq8cvWd8-4" target="BdtXIAtwK2uknq8cvWd8-10" edge="1">
          <mxGeometry relative="1" as="geometry" />
        </mxCell>
        <mxCell id="BdtXIAtwK2uknq8cvWd8-22" style="edgeStyle=orthogonalEdgeStyle;rounded=0;orthogonalLoop=1;jettySize=auto;html=1;entryX=0;entryY=0.5;entryDx=0;entryDy=0;" parent="1" source="BdtXIAtwK2uknq8cvWd8-4" target="BdtXIAtwK2uknq8cvWd8-13" edge="1">
          <mxGeometry relative="1" as="geometry" />
        </mxCell>
        <mxCell id="BdtXIAtwK2uknq8cvWd8-4" value="ERP" style="image;aspect=fixed;html=1;points=[];align=center;fontSize=12;image=img/lib/azure2/general/Folder_Blank.svg;" parent="1" vertex="1">
          <mxGeometry x="155.36" y="290" width="49.29" height="40" as="geometry" />
        </mxCell>
        <mxCell id="BdtXIAtwK2uknq8cvWd8-8" value="" style="rounded=1;whiteSpace=wrap;html=1;fillColor=none;strokeColor=#d79b00;" parent="1" vertex="1">
          <mxGeometry x="284.5" y="130" width="169" height="250" as="geometry" />
        </mxCell>
        <mxCell id="CjcausNh0TlrXnVYw4Cv-9" style="edgeStyle=orthogonalEdgeStyle;rounded=0;orthogonalLoop=1;jettySize=auto;html=1;exitX=1;exitY=0.5;exitDx=0;exitDy=0;entryX=0;entryY=0.5;entryDx=0;entryDy=0;" edge="1" parent="1" source="BdtXIAtwK2uknq8cvWd8-9" target="CjcausNh0TlrXnVYw4Cv-2">
          <mxGeometry relative="1" as="geometry" />
        </mxCell>
        <mxCell id="BdtXIAtwK2uknq8cvWd8-9" value="crm_sales_details" style="rounded=1;whiteSpace=wrap;html=1;fillColor=#ffe6cc;strokeColor=#d79b00;" parent="1" vertex="1">
          <mxGeometry x="316.25" y="160" width="105.5" height="20" as="geometry" />
        </mxCell>
        <mxCell id="BdtXIAtwK2uknq8cvWd8-7" value="Bronze Layer" style="rounded=1;whiteSpace=wrap;html=1;fillColor=#ffe6cc;strokeColor=#d79b00;" parent="1" vertex="1">
          <mxGeometry x="326" y="115" width="86" height="30" as="geometry" />
        </mxCell>
        <mxCell id="CjcausNh0TlrXnVYw4Cv-12" style="edgeStyle=orthogonalEdgeStyle;rounded=0;orthogonalLoop=1;jettySize=auto;html=1;exitX=1;exitY=0.5;exitDx=0;exitDy=0;entryX=0;entryY=0.5;entryDx=0;entryDy=0;" edge="1" parent="1" source="BdtXIAtwK2uknq8cvWd8-10" target="CjcausNh0TlrXnVYw4Cv-4">
          <mxGeometry relative="1" as="geometry" />
        </mxCell>
        <mxCell id="BdtXIAtwK2uknq8cvWd8-10" value="erp_cust_az12" style="rounded=1;whiteSpace=wrap;html=1;fillColor=#ffe6cc;strokeColor=#d79b00;" parent="1" vertex="1">
          <mxGeometry x="316.25" y="270" width="105.5" height="20" as="geometry" />
        </mxCell>
        <mxCell id="CjcausNh0TlrXnVYw4Cv-11" style="edgeStyle=orthogonalEdgeStyle;rounded=0;orthogonalLoop=1;jettySize=auto;html=1;exitX=1;exitY=0.5;exitDx=0;exitDy=0;entryX=0;entryY=0.5;entryDx=0;entryDy=0;" edge="1" parent="1" source="BdtXIAtwK2uknq8cvWd8-11" target="CjcausNh0TlrXnVYw4Cv-5">
          <mxGeometry relative="1" as="geometry" />
        </mxCell>
        <mxCell id="BdtXIAtwK2uknq8cvWd8-11" value="crm_prd_info" style="rounded=1;whiteSpace=wrap;html=1;fillColor=#ffe6cc;strokeColor=#d79b00;" parent="1" vertex="1">
          <mxGeometry x="316.25" y="220" width="105.5" height="20" as="geometry" />
        </mxCell>
        <mxCell id="CjcausNh0TlrXnVYw4Cv-10" style="edgeStyle=orthogonalEdgeStyle;rounded=0;orthogonalLoop=1;jettySize=auto;html=1;exitX=1;exitY=0.5;exitDx=0;exitDy=0;" edge="1" parent="1" source="BdtXIAtwK2uknq8cvWd8-12" target="CjcausNh0TlrXnVYw4Cv-6">
          <mxGeometry relative="1" as="geometry" />
        </mxCell>
        <mxCell id="BdtXIAtwK2uknq8cvWd8-12" value="crm_cust_info" style="rounded=1;whiteSpace=wrap;html=1;fillColor=#ffe6cc;strokeColor=#d79b00;" parent="1" vertex="1">
          <mxGeometry x="316.25" y="190" width="105.5" height="20" as="geometry" />
        </mxCell>
        <mxCell id="CjcausNh0TlrXnVYw4Cv-14" style="edgeStyle=orthogonalEdgeStyle;rounded=0;orthogonalLoop=1;jettySize=auto;html=1;exitX=1;exitY=0.5;exitDx=0;exitDy=0;entryX=0;entryY=0.5;entryDx=0;entryDy=0;" edge="1" parent="1" source="BdtXIAtwK2uknq8cvWd8-13" target="CjcausNh0TlrXnVYw4Cv-7">
          <mxGeometry relative="1" as="geometry" />
        </mxCell>
        <mxCell id="BdtXIAtwK2uknq8cvWd8-13" value="erp_px_cat_g1v2" style="rounded=1;whiteSpace=wrap;html=1;fillColor=#ffe6cc;strokeColor=#d79b00;" parent="1" vertex="1">
          <mxGeometry x="316.25" y="330" width="105.5" height="20" as="geometry" />
        </mxCell>
        <mxCell id="CjcausNh0TlrXnVYw4Cv-13" style="edgeStyle=orthogonalEdgeStyle;rounded=0;orthogonalLoop=1;jettySize=auto;html=1;exitX=1;exitY=0.5;exitDx=0;exitDy=0;entryX=0;entryY=0.5;entryDx=0;entryDy=0;" edge="1" parent="1" source="BdtXIAtwK2uknq8cvWd8-14" target="CjcausNh0TlrXnVYw4Cv-8">
          <mxGeometry relative="1" as="geometry" />
        </mxCell>
        <mxCell id="BdtXIAtwK2uknq8cvWd8-14" value="erp_loc_a101" style="rounded=1;whiteSpace=wrap;html=1;fillColor=#ffe6cc;strokeColor=#d79b00;" parent="1" vertex="1">
          <mxGeometry x="316.25" y="300" width="105.5" height="20" as="geometry" />
        </mxCell>
        <mxCell id="CjcausNh0TlrXnVYw4Cv-1" value="" style="rounded=1;whiteSpace=wrap;html=1;fillColor=none;strokeColor=#666666;fontColor=#333333;" vertex="1" parent="1">
          <mxGeometry x="520" y="130" width="169" height="250" as="geometry" />
        </mxCell>
        <mxCell id="CjcausNh0TlrXnVYw4Cv-30" style="edgeStyle=orthogonalEdgeStyle;rounded=0;orthogonalLoop=1;jettySize=auto;html=1;exitX=1;exitY=0.5;exitDx=0;exitDy=0;entryX=0;entryY=0.5;entryDx=0;entryDy=0;" edge="1" parent="1" source="CjcausNh0TlrXnVYw4Cv-2" target="CjcausNh0TlrXnVYw4Cv-16">
          <mxGeometry relative="1" as="geometry" />
        </mxCell>
        <mxCell id="CjcausNh0TlrXnVYw4Cv-2" value="crm_sales_details" style="rounded=1;whiteSpace=wrap;html=1;fillColor=#f5f5f5;strokeColor=#666666;fontColor=#333333;" vertex="1" parent="1">
          <mxGeometry x="551.75" y="160" width="105.5" height="20" as="geometry" />
        </mxCell>
        <mxCell id="CjcausNh0TlrXnVYw4Cv-3" value="Silver Layer" style="rounded=1;whiteSpace=wrap;html=1;fillColor=#f5f5f5;strokeColor=#666666;fontColor=#333333;" vertex="1" parent="1">
          <mxGeometry x="561.5" y="115" width="86" height="30" as="geometry" />
        </mxCell>
        <mxCell id="CjcausNh0TlrXnVYw4Cv-4" value="erp_cust_az12" style="rounded=1;whiteSpace=wrap;html=1;fillColor=#f5f5f5;strokeColor=#666666;fontColor=#333333;" vertex="1" parent="1">
          <mxGeometry x="551.75" y="270" width="105.5" height="20" as="geometry" />
        </mxCell>
        <mxCell id="CjcausNh0TlrXnVYw4Cv-5" value="crm_prd_info" style="rounded=1;whiteSpace=wrap;html=1;fillColor=#f5f5f5;strokeColor=#666666;fontColor=#333333;" vertex="1" parent="1">
          <mxGeometry x="551.75" y="220" width="105.5" height="20" as="geometry" />
        </mxCell>
        <mxCell id="CjcausNh0TlrXnVYw4Cv-6" value="&lt;span style=&quot;color: rgb(0, 0, 0);&quot;&gt;crm_cust_info&lt;/span&gt;" style="rounded=1;whiteSpace=wrap;html=1;fillColor=#f5f5f5;strokeColor=#666666;fontColor=#333333;" vertex="1" parent="1">
          <mxGeometry x="551.75" y="190" width="105.5" height="20" as="geometry" />
        </mxCell>
        <mxCell id="CjcausNh0TlrXnVYw4Cv-7" value="erp_px_cat_g1v2" style="rounded=1;whiteSpace=wrap;html=1;fillColor=#f5f5f5;strokeColor=#666666;fontColor=#333333;" vertex="1" parent="1">
          <mxGeometry x="551.75" y="330" width="105.5" height="20" as="geometry" />
        </mxCell>
        <mxCell id="CjcausNh0TlrXnVYw4Cv-8" value="erp_loc_a101" style="rounded=1;whiteSpace=wrap;html=1;fillColor=#f5f5f5;strokeColor=#666666;fontColor=#333333;" vertex="1" parent="1">
          <mxGeometry x="551.75" y="300" width="105.5" height="20" as="geometry" />
        </mxCell>
        <mxCell id="CjcausNh0TlrXnVYw4Cv-15" value="" style="rounded=1;whiteSpace=wrap;html=1;fillColor=none;strokeColor=#d6b656;" vertex="1" parent="1">
          <mxGeometry x="760" y="130" width="169" height="250" as="geometry" />
        </mxCell>
        <mxCell id="CjcausNh0TlrXnVYw4Cv-16" value="fact_sales" style="rounded=1;whiteSpace=wrap;html=1;fillColor=#fff2cc;strokeColor=#d6b656;" vertex="1" parent="1">
          <mxGeometry x="791.75" y="160" width="105.5" height="20" as="geometry" />
        </mxCell>
        <mxCell id="CjcausNh0TlrXnVYw4Cv-17" value="Gold Layer" style="rounded=1;whiteSpace=wrap;html=1;fillColor=#fff2cc;strokeColor=#d6b656;" vertex="1" parent="1">
          <mxGeometry x="801.5" y="115" width="86" height="30" as="geometry" />
        </mxCell>
        <mxCell id="CjcausNh0TlrXnVYw4Cv-19" value="dim_products" style="rounded=1;whiteSpace=wrap;html=1;fillColor=#fff2cc;strokeColor=#d6b656;" vertex="1" parent="1">
          <mxGeometry x="791.75" y="320" width="105.5" height="20" as="geometry" />
        </mxCell>
        <mxCell id="CjcausNh0TlrXnVYw4Cv-20" value="dim_customers" style="rounded=1;whiteSpace=wrap;html=1;fillColor=#fff2cc;strokeColor=#d6b656;" vertex="1" parent="1">
          <mxGeometry x="791.75" y="240" width="105.5" height="20" as="geometry" />
        </mxCell>
        <mxCell id="CjcausNh0TlrXnVYw4Cv-23" value="&lt;h1 style=&quot;margin-top: 0px;&quot;&gt;Data Flow Diagram&lt;/h1&gt;" style="text;html=1;whiteSpace=wrap;overflow=hidden;rounded=0;" vertex="1" parent="1">
          <mxGeometry x="120" y="40" width="400" height="40" as="geometry" />
        </mxCell>
        <mxCell id="CjcausNh0TlrXnVYw4Cv-38" value="" style="endArrow=classic;html=1;rounded=0;entryX=0;entryY=0;entryDx=0;entryDy=0;jumpStyle=gap;" edge="1" parent="1" target="CjcausNh0TlrXnVYw4Cv-20">
          <mxGeometry width="50" height="50" relative="1" as="geometry">
            <mxPoint x="657.25" y="200" as="sourcePoint" />
            <mxPoint x="707.25" y="150" as="targetPoint" />
          </mxGeometry>
        </mxCell>
        <mxCell id="CjcausNh0TlrXnVYw4Cv-39" value="" style="endArrow=classic;html=1;rounded=0;entryX=0;entryY=0.25;entryDx=0;entryDy=0;jumpStyle=gap;" edge="1" parent="1" target="CjcausNh0TlrXnVYw4Cv-19">
          <mxGeometry width="50" height="50" relative="1" as="geometry">
            <mxPoint x="657" y="230" as="sourcePoint" />
            <mxPoint x="791.75" y="280" as="targetPoint" />
          </mxGeometry>
        </mxCell>
        <mxCell id="CjcausNh0TlrXnVYw4Cv-40" value="" style="endArrow=classic;html=1;rounded=0;entryX=0;entryY=0.75;entryDx=0;entryDy=0;jumpStyle=gap;" edge="1" parent="1" target="CjcausNh0TlrXnVYw4Cv-19">
          <mxGeometry width="50" height="50" relative="1" as="geometry">
            <mxPoint x="657" y="340" as="sourcePoint" />
            <mxPoint x="791.75" y="390" as="targetPoint" />
          </mxGeometry>
        </mxCell>
        <mxCell id="CjcausNh0TlrXnVYw4Cv-41" value="" style="endArrow=classic;html=1;rounded=0;entryX=0;entryY=1;entryDx=0;entryDy=0;jumpStyle=gap;" edge="1" parent="1" target="CjcausNh0TlrXnVYw4Cv-20">
          <mxGeometry width="50" height="50" relative="1" as="geometry">
            <mxPoint x="656.75" y="310" as="sourcePoint" />
            <mxPoint x="791.75" y="300" as="targetPoint" />
          </mxGeometry>
        </mxCell>
        <mxCell id="CjcausNh0TlrXnVYw4Cv-42" value="" style="endArrow=classic;html=1;rounded=0;entryX=0;entryY=0.5;entryDx=0;entryDy=0;jumpStyle=gap;" edge="1" parent="1" target="CjcausNh0TlrXnVYw4Cv-20">
          <mxGeometry width="50" height="50" relative="1" as="geometry">
            <mxPoint x="656.75" y="280" as="sourcePoint" />
            <mxPoint x="790" y="250" as="targetPoint" />
          </mxGeometry>
        </mxCell>
      </root>
    </mxGraphModel>
  </diagram>
</mxfile>
